<svg width="95" height="54" viewBox="0 0 95 54" fill="none" xmlns="http://www.w3.org/2000/svg">
<rect width="95" height="54" rx="9" fill="#E7F2F5"/>
<path d="M59.007 27.0004C59.0064 24.7065 58.3486 22.4609 57.1114 20.5293C55.8741 18.5977 54.1093 17.061 52.0259 16.1012C49.9425 15.1414 47.6276 14.7987 45.3555 15.1137C43.0833 15.4286 40.949 16.388 39.2052 17.8783C37.4613 19.3685 36.181 21.3273 35.5158 23.5226C34.8506 25.7179 34.8283 28.0578 35.4517 30.2654C36.075 32.4729 37.3178 34.4556 39.033 35.9788C40.7482 37.502 42.8639 38.5018 45.1296 38.8599V30.4681H42.0834V27.0004H45.1283V24.357C45.0629 23.7394 45.1342 23.115 45.337 22.5281C45.5398 21.9411 45.8693 21.406 46.302 20.9605C46.7347 20.5151 47.2601 20.1703 47.8409 19.9505C48.4217 19.7308 49.0438 19.6415 49.663 19.6889C50.5643 19.7017 51.4635 19.7811 52.3531 19.9263V22.8792H50.838C50.5803 22.8452 50.3182 22.8695 50.0712 22.9504C49.8241 23.0314 49.5985 23.1668 49.4109 23.3467C49.2232 23.5267 49.0785 23.7465 48.9873 23.9899C48.8961 24.2334 48.8608 24.4942 48.8841 24.7531V27.0004H52.2184L51.6849 30.4681H48.8841V38.8546C51.7062 38.4069 54.276 36.9672 56.1316 34.7943C57.9872 32.6214 59.0068 29.8578 59.007 27.0004Z" fill="#009EE2"/>
<path d="M51.6797 30.4734L52.2132 27.0057H48.8789V24.7544C48.8557 24.4955 48.891 24.2346 48.9822 23.9912C49.0733 23.7478 49.2181 23.528 49.4057 23.348C49.5933 23.1681 49.819 23.0326 50.066 22.9517C50.313 22.8708 50.5751 22.8464 50.8328 22.8805H52.3466V19.9276C51.457 19.7824 50.5578 19.703 49.6565 19.6902C49.0373 19.6427 48.4152 19.7321 47.8344 19.9518C47.2536 20.1716 46.7282 20.5164 46.2955 20.9618C45.8628 21.4072 45.5333 21.9424 45.3305 22.5293C45.1277 23.1163 45.0564 23.7407 45.1218 24.3582V27.0017H42.0769V30.4694H45.1218V38.8558C45.7416 38.9538 46.3682 39.002 46.9957 38.9999C47.6235 38.9987 48.2503 38.9506 48.8709 38.8558V30.4694L51.6797 30.4734Z" fill="white"/>
</svg>
