<svg width="95" height="54" viewBox="0 0 95 54" fill="none" xmlns="http://www.w3.org/2000/svg">
<rect width="95" height="54" rx="9" fill="#E7F2F5"/>
<path d="M59.5147 27.2731C59.5161 26.456 59.4466 25.6404 59.3068 24.8353H47.9973V29.4551H54.4775C54.3445 30.1933 54.0633 30.8969 53.6509 31.5235C53.2385 32.1501 52.7035 32.6866 52.078 33.1006V36.0984H55.9443C57.124 34.9592 58.0513 33.585 58.6664 32.0648C59.2814 30.5445 59.5704 28.9121 59.5147 27.2731Z" fill="#009EE2"/>
<path d="M47.9939 38.9955C50.9166 39.0773 53.7605 38.0412 55.9457 36.0985L52.0794 33.1008C51.1484 33.6967 50.0939 34.0727 48.9959 34.2002C47.898 34.3277 46.7854 34.2035 45.7426 33.8368C44.6998 33.4701 43.7543 32.8707 42.9778 32.0841C42.2012 31.2974 41.6141 30.3442 41.261 29.2968H37.2763V32.3873C38.275 34.3737 39.806 36.0435 41.6985 37.2104C43.591 38.3772 45.7706 38.9952 47.9939 38.9955Z" fill="#34A853"/>
<path d="M41.2609 29.2924C40.7585 27.8028 40.7585 26.1895 41.2609 24.6998V21.6141H37.2762C36.437 23.2858 36 25.1304 36 27.0009C36 28.8714 36.437 30.716 37.2762 32.3877L41.2609 29.2924Z" fill="#FBBC04"/>
<path d="M47.9939 19.7486C49.7044 19.7208 51.3574 20.3666 52.596 21.5466L56.0241 18.1218C53.8511 16.0829 50.9733 14.9645 47.9939 15.0009C45.7701 15.0015 43.5902 15.6203 41.6976 16.788C39.8051 17.9557 38.2743 19.6265 37.2763 21.6138L41.261 24.7043C41.7248 23.2784 42.6236 22.0336 43.8312 21.1447C45.0388 20.2559 46.4945 19.7676 47.9939 19.7486Z" fill="#EA4335"/>
</svg>
