<svg width="95" height="54" viewBox="0 0 95 54" fill="none" xmlns="http://www.w3.org/2000/svg">
<rect width="95" height="54" rx="9" fill="#E7F2F5"/>
<path d="M53.8649 27.6808C53.8424 26.7481 54.0812 25.8277 54.5542 25.0235C55.0273 24.2193 55.7157 23.5635 56.5419 23.1299C56.0217 22.4076 55.3411 21.8158 54.5535 21.401C53.766 20.9862 52.8929 20.7598 52.0031 20.7394C50.1011 20.5895 48.0211 21.849 47.2608 21.849C46.4577 21.849 44.6133 20.793 43.1664 20.793C40.1789 20.8478 37 23.1848 37 27.9378C37.014 29.4211 37.275 30.8917 37.7723 32.2892C38.4576 34.2568 40.9338 39.0793 43.5171 38.999C44.8676 38.9669 45.8219 38.0393 47.5794 38.0393C49.2833 38.0393 50.168 38.999 51.6738 38.999C54.2785 38.9615 56.5191 34.582 57.1723 32.6051C56.1938 32.206 55.3566 31.5241 54.7677 30.6467C54.1788 29.7693 53.8649 28.7362 53.8662 27.6795L53.8649 27.6808ZM50.8319 18.8816C51.3052 18.3601 51.6642 17.7454 51.8857 17.0769C52.1072 16.4084 52.1864 15.7009 52.1182 15C50.7144 15.1509 49.4171 15.8189 48.4788 16.8739C47.9992 17.3868 47.63 17.9928 47.3942 18.6543C47.1585 19.3158 47.0611 20.0187 47.1082 20.7193C47.8311 20.7347 48.547 20.5757 49.1954 20.2558C49.8438 19.9359 50.4056 19.4646 50.8332 18.8816H50.8319Z" fill="black"/>
</svg>
