<svg width="17" height="18" viewBox="0 0 17 18" fill="none" xmlns="http://www.w3.org/2000/svg">
<path d="M9.7585 14.75C8.9585 15.5833 8.04183 16.4417 7.00016 17.3333C2.5585 13.5417 0.333496 10.2667 0.333496 7.50001C0.333496 3.35001 3.50016 0.666672 7.00016 0.666672C10.4918 0.666672 13.6585 3.34167 13.6668 7.47501L15.4085 5.73334L16.5835 6.91667L12.8335 10.6667L9.0835 6.91667L10.2585 5.74167L12.0002 7.47501C11.9918 4.45834 9.7835 2.33334 7.00016 2.33334C4.2085 2.33334 2.00016 4.47501 2.00016 7.50001C2.00016 9.45001 3.62516 12.0333 7.00016 15.1167C7.5335 14.625 8.02516 14.15 8.47516 13.6917C8.32852 13.4023 8.25148 13.0827 8.25016 12.7583C8.25016 12.2058 8.46966 11.6759 8.86036 11.2852C9.25106 10.8945 9.78096 10.675 10.3335 10.675C10.886 10.675 11.4159 10.8945 11.8066 11.2852C12.1973 11.6759 12.4168 12.2058 12.4168 12.7583C12.4165 13.0806 12.3413 13.3984 12.1969 13.6865C12.0526 13.9746 11.8432 14.2252 11.5853 14.4184C11.3274 14.6116 11.0281 14.7422 10.711 14.7997C10.394 14.8573 10.0678 14.8403 9.7585 14.75Z" fill="#5C9BDE"/>
</svg>
