<svg width="18" height="18" viewBox="0 0 18 18" fill="none" xmlns="http://www.w3.org/2000/svg">
<path d="M15.0832 13.0833C15.4165 12.5 15.6665 11.8333 15.6665 11.0833C15.6665 8.99999 13.9998 7.33332 11.9165 7.33332C9.83317 7.33332 8.1665 8.99999 8.1665 11.0833C8.1665 13.1667 9.83317 14.8333 11.9165 14.8333C12.6665 14.8333 13.3332 14.5833 13.9165 14.25L16.5832 16.9167L17.7498 15.75L15.0832 13.0833ZM11.9165 13.1667C10.7498 13.1667 9.83317 12.25 9.83317 11.0833C9.83317 9.91666 10.7498 8.99999 11.9165 8.99999C13.0832 8.99999 13.9998 9.91666 13.9998 11.0833C13.9998 12.25 13.0832 13.1667 11.9165 13.1667ZM8.99984 15.6667V17.3333C4.39984 17.3333 0.666504 13.6 0.666504 8.99999C0.666504 4.39999 4.39984 0.666656 8.99984 0.666656C13.0332 0.666656 16.3915 3.53332 17.1665 7.33332H15.4415C15.1816 6.32652 14.6898 5.39447 14.0054 4.61167C13.321 3.82886 12.4629 3.217 11.4998 2.82499V3.16666C11.4998 4.08332 10.7498 4.83332 9.83317 4.83332H8.1665V6.49999C8.1665 6.95832 7.7915 7.33332 7.33317 7.33332H5.6665V8.99999H7.33317V11.5H6.49984L2.50817 7.50832C2.39984 7.99166 2.33317 8.48332 2.33317 8.99999C2.33317 12.675 5.32484 15.6667 8.99984 15.6667Z" fill="#7BBCB0"/>
</svg>
