<svg width="21" height="18" viewBox="0 0 21 18" fill="none" xmlns="http://www.w3.org/2000/svg">
<path d="M12.5 2H14.5L18.5 9H19.5C19.7652 9 20.0196 9.10536 20.2071 9.29289C20.3946 9.48043 20.5 9.73478 20.5 10C20.5 10.2652 20.3946 10.5196 20.2071 10.7071C20.0196 10.8946 19.7652 11 19.5 11H18.5V17C18.5 17.2652 18.3946 17.5196 18.2071 17.7071C18.0196 17.8946 17.7652 18 17.5 18H16.5C16.2348 18 15.9804 17.8946 15.7929 17.7071C15.6054 17.5196 15.5 17.2652 15.5 17V16H5.5V17C5.5 17.2652 5.39464 17.5196 5.20711 17.7071C5.01957 17.8946 4.76522 18 4.5 18H3.5C3.23478 18 2.98043 17.8946 2.79289 17.7071C2.60536 17.5196 2.5 17.2652 2.5 17V11H1.5C1.23478 11 0.98043 10.8946 0.792893 10.7071C0.605357 10.5196 0.5 10.2652 0.5 10C0.5 9.73478 0.605357 9.48043 0.792893 9.29289C0.98043 9.10536 1.23478 9 1.5 9H2.5L6.5 2H8.5V0H12.5V2ZM16.36 9L13.5 4H7.5L4.64 9H16.36ZM6 14C6.39782 14 6.77936 13.842 7.06066 13.5607C7.34196 13.2794 7.5 12.8978 7.5 12.5C7.5 12.1022 7.34196 11.7206 7.06066 11.4393C6.77936 11.158 6.39782 11 6 11C5.60218 11 5.22064 11.158 4.93934 11.4393C4.65804 11.7206 4.5 12.1022 4.5 12.5C4.5 12.8978 4.65804 13.2794 4.93934 13.5607C5.22064 13.842 5.60218 14 6 14ZM15 14C15.3978 14 15.7794 13.842 16.0607 13.5607C16.342 13.2794 16.5 12.8978 16.5 12.5C16.5 12.1022 16.342 11.7206 16.0607 11.4393C15.7794 11.158 15.3978 11 15 11C14.6022 11 14.2206 11.158 13.9393 11.4393C13.658 11.7206 13.5 12.1022 13.5 12.5C13.5 12.8978 13.658 13.2794 13.9393 13.5607C14.2206 13.842 14.6022 14 15 14Z" fill="#E4B613"/>
</svg>
