<svg width="17" height="16" viewBox="0 0 17 16" fill="none" xmlns="http://www.w3.org/2000/svg">
<g filter="url(#filter0_d_37_244)">
<path d="M10.9001 14.4H6.1001V15.2C6.1001 15.4122 6.01581 15.6157 5.86578 15.7657C5.71575 15.9157 5.51227 16 5.3001 16H4.5001C4.28792 16 4.08444 15.9157 3.93441 15.7657C3.78438 15.6157 3.7001 15.4122 3.7001 15.2V14.4C3.27575 14.4 2.86878 14.2314 2.56873 13.9314C2.26867 13.6313 2.1001 13.2243 2.1001 12.8V1.6C2.1001 0.72 2.8201 0 3.7001 0H13.3001C13.7244 0 14.1314 0.168571 14.4315 0.468629C14.7315 0.768687 14.9001 1.17565 14.9001 1.6V12.8C14.9001 13.2243 14.7315 13.6313 14.4315 13.9314C14.1314 14.2314 13.7244 14.4 13.3001 14.4V15.2C13.3001 15.4122 13.2158 15.6157 13.0658 15.7657C12.9158 15.9157 12.7123 16 12.5001 16H11.7001C11.4879 16 11.2844 15.9157 11.1344 15.7657C10.9844 15.6157 10.9001 15.4122 10.9001 15.2V14.4ZM3.7001 4V8.8H7.7001V4H3.7001ZM9.3001 4V8.8H13.3001V4H9.3001ZM4.5001 1.6V2.4H12.5001V1.6H4.5001ZM4.9001 12.8C5.21836 12.8 5.52358 12.6736 5.74863 12.4485C5.97367 12.2235 6.1001 11.9183 6.1001 11.6C6.1001 11.2817 5.97367 10.9765 5.74863 10.7515C5.52358 10.5264 5.21836 10.4 4.9001 10.4C4.58184 10.4 4.27661 10.5264 4.05157 10.7515C3.82653 10.9765 3.7001 11.2817 3.7001 11.6C3.7001 11.9183 3.82653 12.2235 4.05157 12.4485C4.27661 12.6736 4.58184 12.8 4.9001 12.8ZM12.1001 12.8C12.4184 12.8 12.7236 12.6736 12.9486 12.4485C13.1737 12.2235 13.3001 11.9183 13.3001 11.6C13.3001 11.2817 13.1737 10.9765 12.9486 10.7515C12.7236 10.5264 12.4184 10.4 12.1001 10.4C11.7818 10.4 11.4766 10.5264 11.2516 10.7515C11.0265 10.9765 10.9001 11.2817 10.9001 11.6C10.9001 11.9183 11.0265 12.2235 11.2516 12.4485C11.4766 12.6736 11.7818 12.8 12.1001 12.8Z" fill="#D176E0"/>
<path d="M11.4001 14.4V13.9H10.9001H6.1001H5.6001V14.4V15.2C5.6001 15.2796 5.56849 15.3559 5.51223 15.4121C5.45597 15.4684 5.37966 15.5 5.3001 15.5H4.5001C4.42053 15.5 4.34423 15.4684 4.28797 15.4121C4.23171 15.3559 4.2001 15.2796 4.2001 15.2V14.4V13.9H3.7001C3.40836 13.9 3.12857 13.7841 2.92228 13.5778C2.71599 13.3715 2.6001 13.0917 2.6001 12.8V1.6C2.6001 0.996142 3.09624 0.5 3.7001 0.5H13.3001C13.5918 0.5 13.8716 0.615892 14.0779 0.822183C14.2842 1.02847 14.4001 1.30826 14.4001 1.6V12.8C14.4001 13.0917 14.2842 13.3715 14.0779 13.5778C13.8716 13.7841 13.5918 13.9 13.3001 13.9H12.8001V14.4V15.2C12.8001 15.2796 12.7685 15.3559 12.7122 15.4121C12.656 15.4684 12.5797 15.5 12.5001 15.5H11.7001C11.6205 15.5 11.5442 15.4684 11.488 15.4121C11.4317 15.3559 11.4001 15.2796 11.4001 15.2V14.4ZM3.7001 3.5H3.2001V4V8.8V9.3H3.7001H7.7001H8.2001V8.8V4V3.5H7.7001H3.7001ZM9.3001 3.5H8.8001V4V8.8V9.3H9.3001H13.3001H13.8001V8.8V4V3.5H13.3001H9.3001ZM4.5001 1.1H4.0001V1.6V2.4V2.9H4.5001H12.5001H13.0001V2.4V1.6V1.1H12.5001H4.5001ZM4.9001 13.3C5.35097 13.3 5.78337 13.1209 6.10218 12.8021C6.42099 12.4833 6.6001 12.0509 6.6001 11.6C6.6001 11.1491 6.42099 10.7167 6.10218 10.3979C5.78337 10.0791 5.35096 9.9 4.9001 9.9C4.44923 9.9 4.01683 10.0791 3.69802 10.3979C3.3792 10.7167 3.2001 11.1491 3.2001 11.6C3.2001 12.0509 3.3792 12.4833 3.69802 12.8021C4.01683 13.1209 4.44923 13.3 4.9001 13.3ZM12.1001 13.3C12.551 13.3 12.9834 13.1209 13.3022 12.8021C13.621 12.4833 13.8001 12.0509 13.8001 11.6C13.8001 11.1491 13.621 10.7167 13.3022 10.3979C12.9834 10.0791 12.551 9.9 12.1001 9.9C11.6492 9.9 11.2168 10.0791 10.898 10.3979C10.5792 10.7167 10.4001 11.1491 10.4001 11.6C10.4001 12.0509 10.5792 12.4833 10.898 12.8021C11.2168 13.1209 11.6492 13.3 12.1001 13.3Z" stroke="black"/>
</g>
<defs>
<filter id="filter0_d_37_244" x="-1.8999" y="0" width="20.7998" height="24" filterUnits="userSpaceOnUse" color-interpolation-filters="sRGB">
<feFlood flood-opacity="0" result="BackgroundImageFix"/>
<feColorMatrix in="SourceAlpha" type="matrix" values="0 0 0 0 0 0 0 0 0 0 0 0 0 0 0 0 0 0 127 0" result="hardAlpha"/>
<feOffset dy="4"/>
<feGaussianBlur stdDeviation="2"/>
<feComposite in2="hardAlpha" operator="out"/>
<feColorMatrix type="matrix" values="0 0 0 0 0 0 0 0 0 0 0 0 0 0 0 0 0 0 0.25 0"/>
<feBlend mode="normal" in2="BackgroundImageFix" result="effect1_dropShadow_37_244"/>
<feBlend mode="normal" in="SourceGraphic" in2="effect1_dropShadow_37_244" result="shape"/>
</filter>
</defs>
</svg>
